<svg
	   xmlns="http://www.w3.org/2000/svg"
	   width="210mm"
	   height="297mm"
	   viewBox="0 0 210 297"
	   version="1.1">
	  <g>
		<g>
			<rect style="fill:#85c0f0;" width="80" height="70" x="7" y="7" />
			<rect style="fill:#85c0f0;" width="30" height="40" x="7" y="121" />
			<rect style="fill:#85c0f0;" width="30" height="40" x="40" y="121" />
			<rect style="fill:#85c0f0;" width="30" height="40" x="73" y="121" />
			<rect style="fill:#85c0f0;" width="30" height="40" x="106" y="121" />
			<rect style="fill:#85c0f0;" width="30" height="40" x="139" y="121" />
			<rect style="fill:#85c0f0;" width="30" height="40" x="172" y="121" />
		</g>
		<g style="font-size:4px;font-family:sans-serif;">
			<text x="30" y="30">UPPER LEVEL</text>
			<text x="30" y="34">RESIDENTIAL</text>
			<text x="30" y="38">LOUNGE</text>		
			<text x="15" y="138">SINGLE</text>
			<text x="12" y="142">BEDROOM</text>
			<text x="48" y="138">SINGLE</text>
			<text x="45" y="142">BEDROOM</text>	
			<text x="81" y="138">SINGLE</text>
			<text x="78" y="142">BEDROOM</text>
			<text x="113" y="138">SINGLE</text>
			<text x="110" y="142">BEDROOM</text>
			<text x="146" y="138">SINGLE</text>
			<text x="143" y="142">BEDROOM</text>		   
			<text x="180" y="138">SINGLE</text>
			<text x="176" y="142">BEDROOM</text>
		</g>
		<g style="font-size:10px;font-family:Algerian;">
			<text x="28" y="55">Room 0</text>
			<text x="17" y="152">R1</text>
			<text x="50" y="152">R2</text>
			<text x="83" y="152">R3</text>
			<text x="115" y="152">R4</text>
			<text x="148" y="152">R5</text>
			<text x="181" y="152">R6</text>
		</g>
		
		<g style="fill:none;">
			<path style="stroke:#4f4f4f;stroke-width:3;" d="M 2,0 H 96 L 96,35 210,35" />
			<path style="stroke:#4f4f4f;stroke-width:3;" d="M 5,161 H 205"/>
			
			<g style="stroke:#000000;stroke-width:2;">
				<path d="M 87.5,7 H 8 7 v 55"/>
				<path d="M 7,73 V 83 H 87 V 59"/>
				<path d="M 87,49 V 41 h 8" />
				<path d="m 20,83 v 13"/>
				<path d="m 7,95 c 4,0 13,0 20,0"/>
				<path d="m 51,83 0,11"/>
				<path d="m 87,82 v 13" />
				<path d="M 88,95 68,95"/>
				<path d="m 43,95 c 3,0 10,0 15,0" />
				<path d="m 144,41 -22,0 c 0,13 0,25 0,38 l 5,0"/>
				<path d="m 160,41 14,0"/>
				<path d="m 155,95 h 52"/>
				<path d="m 184,41 24,0"/>
				<path d="m 38.5,121 v 38.5"/>
				<path d="m 71.5,121 v 38.5"/>
				<path d="m 104.5,121 v 38.5"/>
				<path d="m 137.5,121 v 38.5"/>
				<path d="m 170.5,121 v 38.5"/>
				<path d="m 7,161 v -40 H 202 v 40"/>
			</g>
			
			<g style="stroke:#000000;stroke-width:0.5;">
				<path d="M 7,84 7,95"/>
				<path d="m 27,95 17,0"/>
				<path d="m 68,95 -10,0"/>
				<path d="M 87,41 V 8"/>
			</g>
			
			<g style="stroke:#ffffff;stroke-width:2;">
				<path d="m 21.5,121 11,0" />
				<path d="m 122.5,121 10.5,-0"/>
				<path d="m 56,121 10.5,-0" />
				<path d="m 155,121 10.65,0"/>
				<path d="m 76,121 10.5,0" />
				<path d="M 175,121 185,121"/>
			</g>
			<g style="stroke:#000000;stroke-width:0.25;">
				<path d="M 7,62 A 10.5,11 0 0 1 18,73" />
				<path d="M 18,73 7,73 7,70" />
				<path d="m 7,61 0,3"/>
				<path d="m 87,-59 a 10,10 0 0 1 10,10" transform="scale(1,-1)" />
				<path d="M 97,49 87,49 l 0,5"/>
				<path d="m 87,48 0,3"/>
				<path d="m 32,133 a 10,10 0 0 1 -8,-3 10,10 0 0 1 -3,-8" />
				<path d="m 32,133 0,-12"/>	
				<path d="m 21,122 10.5,-0"/>
				<path d="m 21,120 10.5,0" />
				<path d="m 133,133 a 10.5,10.5 0 0 1 -8,-3 10.5,10.5 0 0 1 -3,-8" />
				<path d="m 133,133 0,-12" />
				<path d="m 122,122 10.5,-0"/>
				<path d="m 122,120 10.5,0" />
				<path d="m 66.5,133 a 10.5,10.5 0 0 1 -8,-3 10.5,10.5 0 0 1 -3,-8" />
				<path d="m 66.5,133 0,-12"/>
				<path d="m 56,122 10.5,-0" />
				<path d="m 56,120 10.5,0" />
				<path d="m 166,133 a 10.5,10.5 0 0 1 -8,-3 10.5,10.5 0 0 1 -3,-8" />
				<path d="m 166,133 0,-12"/>
				<path d="m 155,122 10.5,0"/>
				<path d="m 155,120 10.5,0"/>
				<path d="m 87,122 a 12,10.5 0 0 1 -3,8 12,10.5 0 0 1 -8,4" />
				<path d="m 76,134 0,-12"/>
				<path d="m 76,122 10.5,-0"/>
				<path d="m 76,122 10.5,0"/>
				<path d="m 185,122 a 12,10.5 0 0 1 -3,8 12,10.5 0 0 1 -8,3" />
				<path d="m 175,134 0,-12"/>
				<path d="m 175,122 10.63618,-0"/>
				<path d="m 175,120 10.5,0"/>
			</g>
		</g>
	</g>
</svg>